<svg width="36" height="36" viewBox="0 0 36 36" fill="none" xmlns="http://www.w3.org/2000/svg">
<g clip-path="url(#clip0_14098_106)">
<path d="M18 25.875L15.594 24.7357C13.6384 23.8106 12.375 21.8144 12.375 19.6513V12.375H23.625V19.6513C23.625 21.8145 22.3616 23.8107 20.406 24.7357L18 25.875ZM14.625 14.625V19.6513C14.625 20.9487 15.383 22.1463 16.5564 22.701L18 23.3844L19.4436 22.701C20.617 22.1462 21.375 20.9487 21.375 19.6513V14.625H14.625Z" fill="#278228"/>
<path d="M4.6359 19.8632C5.23271 19.4589 5.625 18.775 5.625 18C5.625 16.7574 4.61756 15.75 3.375 15.75C2.13244 15.75 1.125 16.7574 1.125 18C1.125 18.8872 1.64329 19.6475 2.3895 20.0138C3.1536 26.0145 7.2801 31.0924 13.1542 32.9903L13.8457 30.8491C8.85577 29.2374 5.33599 24.9471 4.6359 19.8632Z" fill="#278228"/>
<path d="M32.9902 22.8464L30.849 22.1543C29.2369 27.1442 24.9471 30.6644 19.8632 31.3641C19.4587 30.7675 18.7753 30.3753 18 30.3753C16.7574 30.3753 15.75 31.3828 15.75 32.6253C15.75 33.8679 16.7574 34.8753 18 34.8753C18.8874 34.8753 19.6474 34.3574 20.0135 33.6108C26.0143 32.8467 31.0923 28.7202 32.9902 22.8464Z" fill="#278228"/>
<path d="M33.6086 15.9863C32.8445 9.98555 28.718 4.90764 22.8439 3.00977L22.1523 5.15098C27.1423 6.76265 30.6621 11.0528 31.3622 16.1367C30.7653 16.541 30.3731 17.2249 30.3731 17.9999C30.3731 19.2425 31.3805 20.2499 32.6231 20.2499C33.8656 20.2499 34.8731 19.2425 34.8731 17.9999C34.8731 17.1128 34.3551 16.3526 33.6086 15.9863Z" fill="#278228"/>
<path d="M17.9981 1.125C17.1107 1.125 16.3507 1.64295 15.9846 2.3895C9.98383 3.1536 4.90569 7.2801 3.00781 13.1539L5.14902 13.8461C6.76104 8.85611 11.0509 5.33599 16.1348 4.63624C16.5393 5.23282 17.2226 5.625 17.998 5.625C19.2406 5.625 20.248 4.61756 20.248 3.375C20.248 2.13244 19.2407 1.125 17.9981 1.125Z" fill="#278228"/>
</g>
<defs>
<clipPath id="clip0_14098_106">
<rect width="36" height="36" fill="white"/>
</clipPath>
</defs>
</svg>
