<svg width="36" height="36" viewBox="0 0 36 36" fill="none" xmlns="http://www.w3.org/2000/svg">
<g clip-path="url(#clip0_14098_151)">
<mask id="mask0_14098_151" style="mask-type:luminance" maskUnits="userSpaceOnUse" x="0" y="0" width="36" height="36">
<path d="M35.75 0.25V35.75H0.25V0.25H35.75Z" fill="white" stroke="white" stroke-width="0.5"/>
</mask>
<g mask="url(#mask0_14098_151)">
<path d="M15.75 0.25H20.25C21.5761 0.25 22.8474 0.777168 23.7852 1.71484C24.7229 2.65251 25.25 3.92391 25.25 5.25V7.75H27.75C29.871 7.75238 31.9045 8.59592 33.4043 10.0957C34.9041 11.5955 35.7476 13.629 35.75 15.75V27.75L35.7402 28.1465C35.6401 30.123 34.8104 31.9982 33.4043 33.4043C31.9045 34.9041 29.871 35.7476 27.75 35.75H8.25C6.12902 35.7476 4.09547 34.9041 2.5957 33.4043C1.09592 31.9045 0.252382 29.871 0.25 27.75V15.75L0.259766 15.3535C0.359882 13.3769 1.18964 11.5018 2.5957 10.0957C4.00176 8.68964 5.87694 7.85988 7.85352 7.75977L8.25 7.75H10.75V5.25C10.75 3.92391 11.2772 2.65251 12.2148 1.71484C13.1525 0.777158 14.4239 0.25 15.75 0.25ZM8.25 11.75C7.18914 11.75 6.17202 12.1717 5.42188 12.9219C4.67173 13.672 4.25 14.6891 4.25 15.75V27.75C4.25 28.8108 4.67175 29.8279 5.42188 30.5781C6.17202 31.3282 7.18914 31.75 8.25 31.75H27.75C28.8108 31.75 29.8279 31.3282 30.5781 30.5781C31.3282 29.8279 31.75 28.8108 31.75 27.75V15.75C31.75 14.6891 31.3282 13.672 30.5781 12.9219C29.8279 12.1718 28.8108 11.75 27.75 11.75H8.25ZM18 15.25C18.5304 15.25 19.039 15.4609 19.4141 15.8359C19.7891 16.211 20 16.7196 20 17.25V19.75H22.5C23.0304 19.75 23.539 19.9609 23.9141 20.3359C24.2891 20.711 24.5 21.2196 24.5 21.75C24.5 22.2804 24.2891 22.789 23.9141 23.1641C23.539 23.5391 23.0304 23.75 22.5 23.75H20V26.25C20 26.7804 19.7891 27.289 19.4141 27.6641C19.039 28.0391 18.5304 28.25 18 28.25C17.4696 28.25 16.961 28.0391 16.5859 27.6641C16.2109 27.289 16 26.7804 16 26.25V23.75H13.5C12.9696 23.75 12.461 23.5391 12.0859 23.1641C11.7109 22.789 11.5 22.2804 11.5 21.75C11.5 21.2196 11.7109 20.711 12.0859 20.3359C12.461 19.9609 12.9696 19.75 13.5 19.75H16V17.25C16 16.7196 16.2109 16.211 16.5859 15.8359C16.961 15.4609 17.4696 15.25 18 15.25ZM15.75 4.25C15.4848 4.25 15.2305 4.35546 15.043 4.54297C14.8556 4.73046 14.75 4.98477 14.75 5.25V7.75H21.25V5.25C21.25 4.98477 21.1444 4.73046 20.957 4.54297C20.7695 4.35546 20.5152 4.25 20.25 4.25H15.75Z" fill="white" stroke="#278228" stroke-width="0.5"/>
</g>
</g>
<defs>
<clipPath id="clip0_14098_151">
<rect width="36" height="36" fill="white"/>
</clipPath>
</defs>
</svg>
