<svg width="51" height="39" viewBox="0 0 51 39" fill="none" xmlns="http://www.w3.org/2000/svg">
<g clip-path="url(#clip0_14098_137)">
<path d="M37.9453 35.8376L46.0074 27.7756C46.2445 27.5384 46.3777 27.2167 46.3777 26.8813V15.8106C46.3777 14.0642 44.9619 12.6484 43.2156 12.6484C41.4692 12.6484 40.0534 14.0642 40.0534 15.8106V25.2971" stroke="white" stroke-width="3.16216" stroke-linecap="round" stroke-linejoin="round"/>
<path d="M37.9448 27.4053L39.7538 25.5963C39.9454 25.4047 40.0529 25.1449 40.0529 24.8743C40.0529 24.4874 39.8343 24.1339 39.4883 23.9608L38.5547 23.4941C36.9316 22.6825 34.9711 23.0006 33.6879 24.2838L31.8013 26.1703C31.0106 26.9611 30.5664 28.0335 30.5664 29.1516V35.8377" stroke="white" stroke-width="3.16216" stroke-linecap="round" stroke-linejoin="round"/>
<path d="M12.6473 35.8376L4.58532 27.7756C4.3481 27.5384 4.21484 27.2167 4.21484 26.8813V15.8106C4.21484 14.0642 5.63059 12.6484 7.37701 12.6484C9.12343 12.6484 10.5392 14.0642 10.5392 15.8106V25.2971" stroke="white" stroke-width="3.16216" stroke-linecap="round" stroke-linejoin="round"/>
<path d="M12.6472 27.4053L10.8381 25.5963C10.6466 25.4047 10.5391 25.1449 10.5391 24.8743C10.5391 24.4874 10.7576 24.1339 11.1035 23.9608L12.0372 23.4941C13.6604 22.6825 15.6208 23.0006 16.9041 24.2838L18.7906 26.1703C19.5813 26.9611 20.0255 28.0335 20.0255 29.1516V35.8377" stroke="white" stroke-width="3.16216" stroke-linecap="round" stroke-linejoin="round"/>
<path d="M28.8093 18.9733H21.7821V14.0544H16.8633V7.02731H21.7821V2.1084H28.8093V7.02731H33.7281V14.0544H28.8093V18.9733Z" stroke="white" stroke-width="3.16216" stroke-linecap="round" stroke-linejoin="round"/>
</g>
<defs>
<clipPath id="clip0_14098_137">
<rect width="50.5946" height="39" fill="white"/>
</clipPath>
</defs>
</svg>
