<svg width="29" height="29" viewBox="0 0 29 29" fill="none" xmlns="http://www.w3.org/2000/svg">
<path d="M10.45 23.275C10.45 25.8846 8.33455 28 5.725 28C3.11545 28 1 25.8846 1 23.275C1 20.6655 3.11545 18.55 5.725 18.55H23.275C25.8846 18.55 28 20.6655 28 23.275C28 25.8846 25.8846 28 23.275 28C20.6655 28 18.55 25.8846 18.55 23.275V5.725C18.55 3.11545 20.6655 1 23.275 1C25.8846 1 28 3.11545 28 5.725C28 8.33455 25.8846 10.45 23.275 10.45H5.725C3.11545 10.45 1 8.33455 1 5.725C1 3.11545 3.11545 1 5.725 1C8.33455 1 10.45 3.11545 10.45 5.725V23.275Z" stroke="#278228" stroke-width="2"/>
</svg>
