<svg width="45" height="40" viewBox="0 0 45 40" fill="none" xmlns="http://www.w3.org/2000/svg">
<path d="M28.125 36.875H16.875M28.125 36.875V21.125C28.125 20.5036 27.6214 20 27 20H18C17.3787 20 16.875 20.5036 16.875 21.125V36.875M28.125 36.875H38.25C38.8714 36.875 39.375 36.3714 39.375 35.75V31.4375C39.375 30.8161 38.8714 30.3125 38.25 30.3125H29.25C28.6286 30.3125 28.125 30.8161 28.125 31.4375V36.875ZM16.875 36.875V27.6875C16.875 27.0661 16.3713 26.5625 15.75 26.5625H6.75C6.12868 26.5625 5.625 27.0661 5.625 27.6875V35.75C5.625 36.3714 6.12868 36.875 6.75 36.875H16.875ZM20.2605 7.08735L21.9651 3.473C22.1839 3.009 22.8161 3.009 23.0349 3.473L24.7395 7.08735L28.5516 7.67051C29.0407 7.74534 29.2356 8.37457 28.8816 8.73555L26.1236 11.5469L26.7744 15.5187C26.8581 16.0288 26.3466 16.4178 25.9089 16.1769L22.5 14.3006L19.0911 16.1769C18.6535 16.4178 18.1419 16.0288 18.2255 15.5187L18.8764 11.5469L16.1185 8.73555C15.7644 8.37457 15.9593 7.74534 16.4484 7.67051L20.2605 7.08735Z" stroke="white" stroke-width="2.5" stroke-linecap="round" stroke-linejoin="round"/>
</svg>
