<svg width="35" height="35" viewBox="0 0 35 35" fill="none" xmlns="http://www.w3.org/2000/svg">
<path d="M12.3838 24.376L12.2842 24.3008C10.8715 23.2307 9.8276 21.7383 9.30078 20.0352C8.77396 18.332 8.79094 16.5043 9.34961 14.8115C9.90836 13.1187 10.9804 11.6463 12.4131 10.6035C13.8457 9.56074 15.5667 9.00003 17.332 9C19.0974 9 20.8184 9.56081 22.251 10.6035C23.6836 11.6463 24.7557 13.1187 25.3145 14.8115C25.8732 16.5043 25.8901 18.3319 25.3633 20.0352C24.8364 21.7384 23.7927 23.2307 22.3799 24.3008L22.2803 24.376V31.5C22.2803 32.3627 21.9412 33.1895 21.3379 33.7988C20.7347 34.408 19.9173 34.7499 19.0654 34.75H15.5996C14.7476 34.75 13.9294 34.4081 13.3262 33.7988C12.7229 33.1895 12.3838 32.3627 12.3838 31.5V24.376ZM19.3154 23.5537C19.3144 23.2891 19.3823 23.029 19.5127 22.7998C19.6432 22.5705 19.8314 22.3799 20.0576 22.248C20.8837 21.7663 21.5701 21.0743 22.0479 20.2412C22.5255 19.4082 22.7777 18.4633 22.7803 17.501V17.5C22.7803 16.0421 22.2071 14.643 21.1855 13.6113C20.164 12.5798 18.7777 12 17.332 12C15.8863 12 14.5001 12.5798 13.4785 13.6113C12.457 14.643 11.8838 16.0421 11.8838 17.5V17.501C11.8864 18.4633 12.1394 19.4081 12.6172 20.2412C13.095 21.0744 13.7812 21.7663 14.6074 22.248C14.8335 22.3799 15.0209 22.5706 15.1514 22.7998C15.2818 23.029 15.3506 23.289 15.3496 23.5537V31.75H19.3154V23.5537Z" fill="#278228" stroke="white" stroke-width="0.5"/>
<path d="M17.3262 0.25C17.7186 0.25 18.0958 0.407509 18.374 0.688477C18.6524 0.969596 18.8096 1.35138 18.8096 1.75V5.25C18.8096 5.64861 18.6524 6.0304 18.374 6.31152C18.0958 6.59249 17.7186 6.75 17.3262 6.75C16.9339 6.74989 16.5575 6.59235 16.2793 6.31152C16.0009 6.0304 15.8438 5.64861 15.8438 5.25V1.75C15.8438 1.35138 16.0009 0.969596 16.2793 0.688477C16.5575 0.407652 16.9339 0.250113 17.3262 0.25Z" fill="#278228" stroke="white" stroke-width="0.5"/>
<path d="M29.459 16H32.9248C33.3173 16 33.6944 16.1575 33.9727 16.4385C34.251 16.7196 34.4082 17.1014 34.4082 17.5C34.4082 17.8986 34.251 18.2804 33.9727 18.5615C33.6944 18.8425 33.3173 19 32.9248 19H29.459C29.0667 18.9999 28.6903 18.8423 28.4121 18.5615C28.1337 18.2804 27.9766 17.8986 27.9766 17.5C27.9766 17.1014 28.1337 16.7196 28.4121 16.4385C28.6557 16.1926 28.9745 16.0407 29.3135 16.0068L29.459 16Z" fill="#278228" stroke="white" stroke-width="0.5"/>
<path d="M1.73242 16H5.19824C5.5907 16 5.96782 16.1575 6.24609 16.4385C6.52446 16.7196 6.68164 17.1014 6.68164 17.5C6.68164 17.8986 6.52446 18.2804 6.24609 18.5615C5.96782 18.8425 5.5907 19 5.19824 19H1.73242C1.34018 18.9999 0.963711 18.8423 0.685547 18.5615C0.407184 18.2804 0.25 17.8986 0.25 17.5C0.25 17.1014 0.407183 16.7196 0.685547 16.4385C0.929116 16.1926 1.24797 16.0407 1.58691 16.0068L1.73242 16Z" fill="#278228" stroke="white" stroke-width="0.5"/>
<path d="M6.0625 5.0166C6.45988 5.00538 6.84604 5.15331 7.13574 5.42969L9.62793 7.91211L9.63379 7.91797C9.92212 8.18664 10.0936 8.56006 10.1104 8.95703C10.1271 9.35395 9.98734 9.74062 9.72266 10.0332C9.58531 10.1778 9.42121 10.2939 9.23926 10.373C9.05603 10.4527 8.8585 10.4934 8.65918 10.4941L8.65137 10.4951C8.45268 10.5022 8.25411 10.4684 8.06836 10.3965C7.88273 10.3245 7.71361 10.2149 7.57031 10.0752L5.07422 7.64355L5.07324 7.6416L4.96973 7.5332C4.74281 7.26905 4.61233 6.93158 4.60254 6.57812C4.59143 6.17441 4.73957 5.78298 5.01367 5.49023C5.28773 5.1977 5.66501 5.02783 6.0625 5.0166Z" fill="#278228" stroke="white" stroke-width="0.5"/>
<path d="M28.5645 5.07812C28.9554 5.07812 29.3314 5.23457 29.6094 5.51367C29.7485 5.653 29.8591 5.819 29.9346 6.00195C30.01 6.18476 30.0488 6.38093 30.0488 6.5791C30.0488 6.77746 30.0101 6.97426 29.9346 7.15723C29.8595 7.33914 29.7493 7.50374 29.6113 7.64258L27.1162 10.0752C26.8415 10.3425 26.4762 10.4913 26.0957 10.4932C25.8966 10.4923 25.6996 10.4526 25.5166 10.373C25.3333 10.2933 25.1673 10.1764 25.0293 10.0303L25.0254 10.0264C24.7493 9.74565 24.5939 9.36547 24.5938 8.96875C24.5938 8.6213 24.7127 8.28594 24.9277 8.01953L25.0254 7.91016L27.5166 5.51758L27.5205 5.51367C27.7985 5.23467 28.1736 5.07816 28.5645 5.07812Z" fill="#278228" stroke="white" stroke-width="0.5"/>
</svg>
