<svg width="36" height="36" viewBox="0 0 36 36" fill="none" xmlns="http://www.w3.org/2000/svg">
<path fill-rule="evenodd" clip-rule="evenodd" d="M18 1.875C14.065 1.875 10.875 5.06498 10.875 9C10.875 12.935 14.065 16.125 18 16.125C21.9351 16.125 25.125 12.935 25.125 9C25.125 5.06498 21.9351 1.875 18 1.875ZM13.125 9C13.125 6.3076 15.3077 4.125 18 4.125C20.6924 4.125 22.875 6.3076 22.875 9C22.875 11.6924 20.6924 13.875 18 13.875C15.3077 13.875 13.125 11.6924 13.125 9Z" fill="#278228"/>
<path d="M27 4.875C26.3787 4.875 25.875 5.37868 25.875 6C25.875 6.62132 26.3787 7.125 27 7.125C29.0647 7.125 30.375 8.48359 30.375 9.75C30.375 11.0164 29.0647 12.375 27 12.375C26.3787 12.375 25.875 12.8787 25.875 13.5C25.875 14.1213 26.3787 14.625 27 14.625C29.9058 14.625 32.625 12.6257 32.625 9.75C32.625 6.87427 29.9058 4.875 27 4.875Z" fill="#278228"/>
<path d="M10.125 6C10.125 5.37868 9.62132 4.875 9 4.875C6.09417 4.875 3.375 6.87427 3.375 9.75C3.375 12.6257 6.09417 14.625 9 14.625C9.62132 14.625 10.125 14.1213 10.125 13.5C10.125 12.8787 9.62132 12.375 9 12.375C6.93527 12.375 5.625 11.0164 5.625 9.75C5.625 8.48359 6.93527 7.125 9 7.125C9.62132 7.125 10.125 6.62132 10.125 6Z" fill="#278228"/>
<path fill-rule="evenodd" clip-rule="evenodd" d="M18 18.375C15.3236 18.375 12.8497 19.0962 11.012 20.3212C9.18219 21.5412 7.875 23.3499 7.875 25.5C7.875 27.6501 9.18219 29.4588 11.012 30.6787C12.8497 31.9038 15.3236 32.625 18 32.625C20.6764 32.625 23.1503 31.9038 24.9881 30.6787C26.8178 29.4588 28.125 27.6501 28.125 25.5C28.125 23.3499 26.8178 21.5412 24.9881 20.3212C23.1503 19.0962 20.6764 18.375 18 18.375ZM10.125 25.5C10.125 24.3363 10.8325 23.1452 12.2601 22.1934C13.6798 21.2469 15.7059 20.625 18 20.625C20.2941 20.625 22.3203 21.2469 23.7399 22.1934C25.1674 23.1452 25.875 24.3363 25.875 25.5C25.875 26.6637 25.1674 27.8548 23.7399 28.8066C22.3203 29.7531 20.2941 30.375 18 30.375C15.7059 30.375 13.6798 29.7531 12.2601 28.8066C10.8325 27.8548 10.125 26.6637 10.125 25.5Z" fill="#278228"/>
<path d="M28.9013 20.7592C29.0344 20.1523 29.6344 19.7683 30.2413 19.9013C31.684 20.2177 32.9842 20.7892 33.9494 21.5791C34.9139 22.3682 35.6252 23.453 35.6252 24.7502C35.6252 26.0474 34.9139 27.1322 33.9494 27.9214C32.9842 28.7113 31.684 29.2828 30.2413 29.5991C29.6344 29.7322 29.0344 29.3482 28.9013 28.7413C28.7683 28.1344 29.1523 27.5344 29.7592 27.4013C30.9478 27.1406 31.8976 26.693 32.5246 26.18C33.1523 25.6664 33.3752 25.1647 33.3752 24.7502C33.3752 24.3358 33.1523 23.834 32.5246 23.3204C31.8976 22.8074 30.9478 22.3598 29.7592 22.0991C29.1523 21.9661 28.7683 21.3661 28.9013 20.7592Z" fill="#278228"/>
<path d="M5.75903 19.9013C6.36592 19.7683 6.96581 20.1523 7.09889 20.7592C7.23198 21.3661 6.84787 21.9661 6.24097 22.0991C5.05243 22.3598 4.10258 22.8074 3.47568 23.3204C2.84795 23.834 2.625 24.3358 2.625 24.7502C2.625 25.1647 2.84795 25.6664 3.47568 26.18C4.10258 26.693 5.05243 27.1406 6.24097 27.4013C6.84787 27.5344 7.23198 28.1344 7.09889 28.7413C6.96581 29.3482 6.36592 29.7322 5.75903 29.5991C4.31619 29.2828 3.01605 28.7113 2.05079 27.9214C1.08637 27.1322 0.375 26.0474 0.375 24.7502C0.375 23.453 1.08637 22.3682 2.05079 21.5791C3.01605 20.7892 4.31619 20.2177 5.75903 19.9013Z" fill="#278228"/>
</svg>
