<svg width="192" height="96" viewBox="0 0 192 96" fill="none" xmlns="http://www.w3.org/2000/svg">
<path d="M95.85 56.3197C85.8729 56.3197 77.2633 50.5778 73.0998 42.2246L71.606 39.6355L70.61 37.9081L65.1617 28.464L65.067 28.2992L57.9381 15.9399L57.311 14.8902L57.2987 14.8682L57.2982 14.8699C51.8812 5.95458 42.0795 0 30.892 0C16.4784 0 4.3688 9.87611 0.96174 23.2221C0.388922 25.4459 0.0624043 27.7754 0.00921311 30.1671C-1.40949e-07 30.4057 0 30.6447 0 30.891C0 47.9434 13.8303 61.7737 30.8921 61.7737C41.443 61.7737 50.7544 56.4759 56.3254 48.3992V61.7753H61.7726V47.7619L59.1826 43.2703L56.3254 38.3173L55.5726 37.0113C52.8316 48.0976 42.8243 56.3197 30.8921 56.3197C18.853 56.3197 8.78244 47.9692 6.14376 36.7424C5.69367 34.8627 5.45535 32.9039 5.45535 30.891C5.45535 30.0173 5.49822 29.1433 5.58716 28.2882V28.2787C6.89372 15.4547 17.7233 5.45449 30.892 5.45449C39.9128 5.45449 47.8311 10.158 52.3454 17.244L52.3478 17.2333L52.4304 17.3764C52.7631 17.9048 53.0774 18.4466 53.3701 19.0005L55.4909 22.6653L59.8106 30.1257L61.6682 33.3356L61.7726 33.5169L65.1619 39.3717V39.8881V53.6372V75.5256H70.6101V63.081V48.7829V48.6835C76.2027 56.5987 85.4197 61.7738 95.8502 61.7738C108.562 61.7738 119.478 54.0859 124.214 43.1094L120.58 36.7999C117.914 47.9918 107.858 56.3197 95.85 56.3197Z" fill="white"/>
<path d="M160.85 5.45519C170.529 5.45519 178.945 10.8654 183.241 18.8298H189.287C184.589 7.76298 173.623 0.000976562 160.85 0.000976562C148.326 0.000976562 137.546 7.45822 132.699 18.1688L136.287 24.2845C139.195 13.4384 149.086 5.45519 160.85 5.45519Z" fill="white"/>
<path d="M186.259 31.3894H160.84H159.514V36.8368H185.565C182.888 48.0116 172.838 56.3213 160.843 56.3213C150.394 56.3213 142.916 50.9534 137.523 41.0238L136.649 39.4888L130.094 27.9891L129.368 26.713L122.883 15.9453L122.878 15.9521C117.612 6.44154 107.482 0.000245552 95.8475 0.000245552C85.4198 0.000245552 76.1993 5.17195 70.6071 13.0847V0H67.3954H65.1602V14.1846L67.5929 18.3883L70.6071 23.5953L71.1937 24.6098C73.9891 13.5979 83.9651 5.45449 95.8475 5.45449C105.674 5.45449 114.192 11.0327 118.426 19.1949C118.604 19.5052 118.804 19.8522 119.016 20.2204L120.457 22.789L126.628 33.7855L128.849 37.7444L134.274 46.6439C139.658 55.701 149.538 61.7756 160.843 61.7756C177.728 61.7756 191.446 48.2127 191.713 31.3897H189.882H186.259V31.3894Z" fill="#278228"/>
<path d="M38.8608 88.3112L37.3819 91.425H40.3194L38.8608 88.3112ZM38.9658 86.4863L42.9718 95.0813H42.0491L40.6992 92.2523H36.9954L35.6521 95.0813H34.6922L38.7558 86.4863H38.9658ZM24.6916 95.0813V86.4863H24.8782L30.5934 93.0662V86.4863H31.4413V95.0813H31.2482L25.5802 88.5858V95.0813H24.6916ZM13.9243 95.0813V86.4863H14.1109L19.8262 93.0662V86.4863H20.6741V95.0813H20.4808L14.8129 88.5858V95.0813H13.9243ZM6.55907 88.3112L5.08033 91.425H8.01755L6.55907 88.3112ZM6.66423 86.4863L10.67 95.0813H9.74738L8.39762 92.2523H4.69363L3.3505 95.0813H2.39062L6.45392 86.4863H6.66423Z" fill="white"/>
<path d="M52.2957 87.3205V90.2444L53.7506 90.2614C54.3376 90.2614 54.7682 90.207 55.043 90.0988C55.3143 89.9935 55.5281 89.8206 55.6841 89.5798C55.8402 89.3388 55.918 89.0706 55.918 88.7759C55.918 88.4873 55.8401 88.2262 55.6841 87.9855C55.5281 87.7448 55.3211 87.5749 55.0668 87.4732C54.8125 87.3716 54.3954 87.3205 53.8153 87.3205H52.2957ZM51.4375 86.4863H53.1469C54.1273 86.4863 54.792 86.5303 55.1346 86.6153C55.6266 86.7336 56.0268 86.9813 56.3388 87.358C56.6508 87.7344 56.8068 88.2092 56.8068 88.7759C56.8068 89.3489 56.6544 89.8241 56.3526 90.1938C56.0472 90.5663 55.6267 90.8177 55.0941 90.9431C54.7039 91.0382 53.9783 91.0857 52.9097 91.0857H52.2959V95.0813H51.4377V86.4863H51.4375Z" fill="white"/>
<path d="M60.4414 86.4863H61.3063V90.0917H65.675V86.4863H66.5399V95.0813H65.675V90.933H61.3063V95.0813H60.4414V86.4863Z" fill="white"/>
<path d="M125.107 86.4872H126.097L128.295 90.0282L130.456 86.4872H131.45L128.729 90.9748V95.0822H127.881V90.9748L125.107 86.4872ZM122.144 88.0814L121.466 88.6039C121.093 88.1153 120.645 87.7458 120.123 87.4945C119.597 87.2436 119.02 87.1179 118.393 87.1179C117.707 87.1179 117.073 87.2807 116.49 87.6098C115.903 87.9392 115.452 88.3835 115.13 88.9363C114.808 89.4925 114.648 90.1164 114.648 90.8121C114.648 91.8598 115.008 92.7316 115.727 93.4339C116.446 94.1358 117.351 94.4852 118.447 94.4852C119.651 94.4852 120.655 94.014 121.466 93.0709L122.144 93.5866C121.717 94.1328 121.184 94.5534 120.543 94.8517C119.902 95.1501 119.183 95.2994 118.393 95.2994C116.89 95.2994 115.703 94.7976 114.835 93.797C114.106 92.9521 113.742 91.9313 113.742 90.7339C113.742 89.4758 114.183 88.4176 115.069 87.5593C115.951 86.7009 117.056 86.2705 118.382 86.2705C119.186 86.2705 119.909 86.4298 120.557 86.7454C121.204 87.0638 121.734 87.5081 122.144 88.0814ZM106.781 88.3121L105.302 91.4259H108.24L106.781 88.3121ZM106.886 86.4872L110.892 95.0822H109.969L108.619 92.2532H104.916L103.572 95.0822H102.612L106.676 86.4872H106.886ZM90.0711 95.0822L91.2921 86.4872H91.4312L94.9249 93.5387L98.3845 86.4872H98.5236L99.7584 95.0822H98.9104L98.069 88.9361L95.0299 95.0822H94.8163L91.7365 88.8885L90.9021 95.0822H90.0711ZM82.1904 87.3282V90.2487L83.6693 90.2622C84.2426 90.2622 84.6665 90.2078 84.9412 90.0959C85.2157 89.9875 85.4295 89.8142 85.5822 89.5735C85.7349 89.3362 85.813 89.0684 85.813 88.773C85.813 88.4847 85.7349 88.2203 85.5822 87.9862C85.4262 87.7522 85.2226 87.5827 84.9683 87.4806C84.7141 87.379 84.2933 87.328 83.7032 87.328L82.1904 87.3282ZM81.3323 86.4872H83.0452C83.9983 86.4872 84.646 86.5277 84.9853 86.606C85.4941 86.7212 85.9078 86.972 86.2303 87.3554C86.549 87.7387 86.7084 88.2136 86.7084 88.7733C86.7084 89.2378 86.5999 89.6485 86.3794 90.0043C86.1589 90.3605 85.8436 90.6285 85.4332 90.8085C85.0228 90.9881 84.4598 91.083 83.7406 91.0866L86.8305 95.0822H85.7689L82.6822 91.0866H82.1904V95.0822H81.3323V86.4872ZM73.9264 88.3121L72.4476 91.4259H75.385L73.9264 88.3121ZM74.0315 86.4872L78.0375 95.0822H77.1146L75.7648 92.2532H72.0608L70.7177 95.0822H69.7578L73.8212 86.4872H74.0315Z" fill="white"/>
<path d="M148.297 87.9322L147.629 88.5632C147.151 88.0919 146.625 87.7323 146.055 87.4881C145.485 87.247 144.929 87.1251 144.386 87.1251C143.711 87.1251 143.07 87.2914 142.463 87.6201C141.852 87.9528 141.381 88.4004 141.045 88.9667C140.709 89.5334 140.543 90.1336 140.543 90.7647C140.543 91.4123 140.716 92.0264 141.062 92.6062C141.408 93.1897 141.886 93.6474 142.5 93.9801C143.111 94.3159 143.779 94.4822 144.508 94.4822C145.394 94.4822 146.14 94.2309 146.754 93.7324C147.364 93.2338 147.727 92.5896 147.839 91.7924H145.098V90.9646H148.803C148.796 92.291 148.402 93.3458 147.622 94.1259C146.839 94.9096 145.794 95.2995 144.488 95.2995C142.897 95.2995 141.639 94.7569 140.713 93.6748C140.001 92.8405 139.645 91.8772 139.645 90.7814C139.645 89.9674 139.848 89.211 140.258 88.5091C140.665 87.8067 141.225 87.2607 141.941 86.8637C142.653 86.4672 143.46 86.2705 144.359 86.2705C145.088 86.2705 145.773 86.4026 146.414 86.6638C147.056 86.9284 147.683 87.3522 148.297 87.9322Z" fill="white"/>
<path d="M153.249 87.3273V90.2478L154.728 90.2613C155.301 90.2613 155.725 90.2069 156 90.095C156.275 89.9867 156.488 89.8133 156.641 89.5727C156.793 89.3354 156.871 89.0676 156.871 88.7721C156.871 88.4838 156.793 88.2195 156.641 87.9853C156.485 87.7513 156.281 87.5818 156.027 87.4797C155.773 87.3782 155.352 87.3272 154.762 87.3272L153.249 87.3273ZM152.391 86.4863H154.104C155.057 86.4863 155.705 86.5269 156.044 86.6051C156.553 86.7203 156.966 86.9712 157.289 87.3546C157.607 87.7378 157.767 88.2127 157.767 88.7724C157.767 89.237 157.658 89.6476 157.438 90.0035C157.217 90.3596 156.902 90.6276 156.492 90.8076C156.081 90.9872 155.518 91.0821 154.799 91.0857L157.889 95.0813H156.827L153.741 91.0857H153.249V95.0813H152.391V86.4863Z" fill="white"/>
<path d="M165.659 87.1114C165.025 87.1114 164.421 87.2777 163.855 87.6065C163.285 87.9392 162.841 88.3867 162.522 88.9463C162.203 89.506 162.043 90.1335 162.043 90.8222C162.043 91.8431 162.396 92.7046 163.105 93.4065C163.811 94.1088 164.662 94.4614 165.659 94.4614C166.324 94.4614 166.942 94.2986 167.508 93.9764C168.074 93.6543 168.519 93.2099 168.834 92.6502C169.15 92.0903 169.309 91.4664 169.309 90.7812C169.309 90.0997 169.15 89.4857 168.834 88.9326C168.519 88.3799 168.071 87.939 167.494 87.6064C166.918 87.2778 166.307 87.1114 165.659 87.1114ZM165.619 86.2705C166.918 86.2705 168.006 86.7044 168.885 87.5727C169.76 88.4445 170.198 89.5129 170.198 90.7814C170.198 92.0399 169.76 93.1084 168.888 93.9836C168.014 94.8618 166.948 95.2994 165.69 95.2994C164.415 95.2994 163.339 94.8618 162.464 93.9903C161.586 93.1185 161.148 92.0602 161.148 90.8225C161.148 89.9982 161.348 89.2316 161.749 88.5258C162.146 87.8239 162.692 87.2708 163.38 86.8708C164.068 86.4704 164.815 86.2705 165.619 86.2705Z" fill="white"/>
<path d="M173.852 86.4864H174.71V91.6758C174.71 92.2898 174.72 92.673 174.744 92.8256C174.788 93.165 174.886 93.4466 175.042 93.6736C175.198 93.9012 175.439 94.0942 175.761 94.2469C176.083 94.4028 176.409 94.481 176.738 94.481C177.023 94.481 177.295 94.4198 177.555 94.2976C177.817 94.1791 178.034 94.0093 178.21 93.7958C178.383 93.5821 178.512 93.3207 178.597 93.0188C178.655 92.7983 178.681 92.3508 178.681 91.6757V86.4863H179.543V91.6757C179.543 92.4422 179.468 93.0632 179.319 93.5345C179.167 94.0093 178.868 94.4233 178.417 94.7722C177.966 95.1219 177.423 95.2981 176.785 95.2981C176.09 95.2981 175.497 95.1322 175.005 94.7995C174.509 94.4707 174.177 94.033 174.008 93.4867C173.903 93.1511 173.852 92.5473 173.852 91.6756V86.4864H173.852Z" fill="white"/>
<path d="M184.428 87.3205V90.2444L185.884 90.2614C186.47 90.2614 186.901 90.207 187.176 90.0988C187.447 89.9935 187.661 89.8206 187.817 89.5798C187.973 89.3388 188.051 89.0706 188.051 88.7759C188.051 88.4873 187.973 88.2262 187.817 87.9855C187.661 87.7448 187.454 87.5749 187.2 87.4732C186.945 87.3716 186.528 87.3205 185.948 87.3205H184.428ZM183.57 86.4863H185.28C186.26 86.4863 186.925 86.5303 187.268 86.6153C187.759 86.7336 188.16 86.9813 188.472 87.358C188.784 87.7344 188.94 88.2092 188.94 88.7759C188.94 89.3489 188.787 89.8241 188.485 90.1938C188.18 90.5663 187.759 90.8177 187.227 90.9431C186.837 91.0382 186.111 91.0857 185.043 91.0857H184.429V95.0813H183.571V86.4863H183.57Z" fill="white"/>
<path d="M163.129 26.0817L163.154 41.8218H168.42V26.0576L163.129 26.0817Z" fill="#278228"/>
</svg>
