<svg width="131" height="65" viewBox="0 0 131 65" fill="none" xmlns="http://www.w3.org/2000/svg">
<path d="M65.3759 38.4137C58.5709 38.4137 52.6986 34.4973 49.8588 28.7999L48.8399 27.034L48.1606 25.8558L44.4445 19.4143L44.3799 19.3019L39.5175 10.872L39.0898 10.1561L39.0814 10.1411L39.0811 10.1423C35.3863 4.06141 28.7009 0 21.0704 0C11.2394 0 2.9798 6.73615 0.655969 15.8389C0.26527 17.3557 0.0425637 18.9446 0.00628393 20.5759C-9.61364e-08 20.7386 0 20.9017 0 21.0697C0 32.7005 9.43317 42.1337 21.0704 42.1337C28.2668 42.1337 34.6178 38.5202 38.4175 33.0114V42.1348H42.1329V32.5767L40.3664 29.5132L38.4175 26.1349L37.9041 25.2441C36.0346 32.8057 29.2089 38.4137 21.0704 38.4137C12.859 38.4137 5.99019 32.7181 4.19044 25.0607C3.88345 23.7786 3.7209 22.4426 3.7209 21.0697C3.7209 20.4737 3.75014 19.8776 3.8108 19.2944V19.2879C4.70196 10.5411 12.0885 3.72031 21.0704 3.72031C27.2231 3.72031 32.6239 6.92844 35.7029 11.7615L35.7046 11.7542L35.7609 11.8518C35.9878 12.2122 36.2022 12.5818 36.4019 12.9596L37.8484 15.4592L40.7947 20.5477L42.0617 22.737L42.1329 22.8607L44.4446 26.854V27.2063V36.584V51.5133H48.1606V43.0253V33.2731V33.2053C51.9751 38.604 58.2618 42.1338 65.376 42.1338C74.046 42.1338 81.4916 36.8901 84.7217 29.4034L82.2435 25.0999C80.425 32.7335 73.5658 38.4137 65.3759 38.4137Z" fill="white"/>
<path d="M109.709 3.72121C116.311 3.72121 122.051 7.41144 124.981 12.8438H129.106C125.901 5.29531 118.421 0.000976562 109.709 0.000976562C101.167 0.000976562 93.8139 5.08744 90.5078 12.3929L92.9546 16.5643C94.9385 9.16644 101.685 3.72121 109.709 3.72121Z" fill="white"/>
<path d="M127.042 21.4096H109.705H108.801V25.1251H126.569C124.743 32.747 117.889 38.4148 109.707 38.4148C102.58 38.4148 97.4801 34.7535 93.8013 27.9809L93.2051 26.9339L88.7343 19.0904L88.2391 18.22L83.8164 10.8757L83.8126 10.8803C80.2206 4.39354 73.3115 0.000167482 65.3761 0.000167482C58.2637 0.000167482 51.9747 3.5276 48.1605 8.92458V0H45.9699H44.4453V9.67481L46.1046 12.542L48.1605 16.0935L48.5606 16.7855C50.4673 9.27464 57.2715 3.72031 65.3761 3.72031C72.0781 3.72031 77.8882 7.525 80.7757 13.0921C80.8976 13.3038 81.0339 13.5405 81.1782 13.7916L82.1611 15.5436L86.3703 23.0439L87.8854 25.7441L91.5853 31.8141C95.2577 37.9917 101.996 42.1349 109.707 42.1349C121.224 42.1349 130.58 32.8842 130.762 21.4098H129.513H127.042V21.4096Z" fill="#278228"/>
<path d="M26.5085 60.234L25.4998 62.3578H27.5034L26.5085 60.234ZM26.5802 58.9893L29.3125 64.8518H28.6832L27.7625 62.9221H25.2361L24.3199 64.8518H23.6652L26.4369 58.9893H26.5802ZM16.8439 64.8518V58.9893H16.9712L20.8695 63.4773V58.9893H21.4478V64.8518H21.3161L17.4501 60.4213V64.8518H16.8439ZM9.49975 64.8518V58.9893H9.62702L13.5253 63.4773V58.9893H14.1037V64.8518H13.9718L10.1059 60.4213V64.8518H9.49975ZM4.47604 60.234L3.46741 62.3578H5.47085L4.47604 60.234ZM4.54776 58.9893L7.28006 64.8518H6.65074L5.73008 62.9221H3.20365L2.28752 64.8518H1.63281L4.40432 58.9893H4.54776Z" fill="white"/>
<path d="M35.6713 59.5583V61.5526L36.6636 61.5642C37.0641 61.5642 37.3577 61.5271 37.5452 61.4533C37.7303 61.3815 37.876 61.2635 37.9825 61.0993C38.089 60.9349 38.142 60.752 38.142 60.551C38.142 60.3541 38.0889 60.176 37.9825 60.0118C37.876 59.8477 37.7349 59.7318 37.5614 59.6624C37.388 59.5931 37.1034 59.5583 36.7078 59.5583H35.6713ZM35.0859 58.9893H36.2519C36.9206 58.9893 37.374 59.0193 37.6077 59.0772C37.9432 59.1579 38.2162 59.3268 38.429 59.5838C38.6419 59.8405 38.7483 60.1644 38.7483 60.551C38.7483 60.9418 38.6443 61.2659 38.4384 61.518C38.2301 61.7722 37.9433 61.9436 37.58 62.0291C37.3139 62.094 36.819 62.1264 36.0901 62.1264H35.6714V64.8518H35.0861V58.9893H35.0859Z" fill="white"/>
<path d="M41.2266 58.9893H41.8165V61.4484H44.7963V58.9893H45.3863V64.8518H44.7963V62.0223H41.8165V64.8518H41.2266V58.9893Z" fill="white"/>
<path d="M85.3306 58.9896H86.0061L87.5053 61.4048L88.9791 58.9896H89.6572L87.8016 62.0505V64.8521H87.2232V62.0505L85.3306 58.9896ZM83.31 60.077L82.8473 60.4333C82.5928 60.1001 82.2875 59.8481 81.9312 59.6767C81.5726 59.5056 81.1793 59.4198 80.7514 59.4198C80.2837 59.4198 79.8512 59.5309 79.4532 59.7553C79.0532 59.98 78.7455 60.283 78.5256 60.6601C78.3058 61.0394 78.1972 61.465 78.1972 61.9396C78.1972 62.6542 78.4424 63.2488 78.9328 63.7278C79.4232 64.2066 80.0409 64.4449 80.7883 64.4449C81.6095 64.4449 82.2945 64.1235 82.8473 63.4802L83.31 63.832C83.0184 64.2045 82.6552 64.4914 82.2179 64.6949C81.7808 64.8984 81.2904 65.0002 80.7514 65.0002C79.7264 65.0002 78.9166 64.658 78.3243 63.9755C77.827 63.3992 77.5793 62.703 77.5793 61.8862C77.5793 61.0281 77.8801 60.3063 78.484 59.7209C79.0855 59.1354 79.8398 58.8418 80.7442 58.8418C81.2925 58.8418 81.7854 58.9505 82.2272 59.1657C82.669 59.3829 83.03 59.686 83.31 60.077ZM72.831 60.2343L71.8225 62.3582H73.8259L72.831 60.2343ZM72.9027 58.9896L75.6348 64.8521H75.0057L74.0849 62.9225H71.5587L70.6423 64.8521H69.9876L72.7592 58.9896H72.9027ZM61.4335 64.8521L62.2663 58.9896H62.3612L64.7442 63.7993L67.1039 58.9896H67.1988L68.041 64.8521H67.4626L66.8887 60.66L64.8158 64.8521H64.6701L62.5694 60.6275L62.0003 64.8521H61.4335ZM56.0582 59.5632V61.5552L57.0669 61.5645C57.458 61.5645 57.7471 61.5273 57.9345 61.451C58.1217 61.3771 58.2675 61.2589 58.3717 61.0947C58.4758 60.9329 58.5291 60.7502 58.5291 60.5487C58.5291 60.3521 58.4758 60.1717 58.3717 60.012C58.2653 59.8524 58.1264 59.7368 57.953 59.6672C57.7795 59.5979 57.4926 59.5631 57.0901 59.5631L56.0582 59.5632ZM55.4729 58.9896H56.6412C57.2913 58.9896 57.7331 59.0172 57.9645 59.0706C58.3116 59.1492 58.5938 59.3203 58.8137 59.5818C59.0311 59.8432 59.1398 60.1671 59.1398 60.5489C59.1398 60.8658 59.0658 61.1459 58.9154 61.3886C58.765 61.6315 58.55 61.8143 58.27 61.9371C57.9901 62.0596 57.6061 62.1243 57.1155 62.1268L59.2231 64.8521H58.499L56.3936 62.1268H56.0582V64.8521H55.4729V58.9896ZM50.4214 60.2343L49.4128 62.3582H51.4163L50.4214 60.2343ZM50.4932 58.9896L53.2255 64.8521H52.596L51.6754 62.9225H49.149L48.2328 64.8521H47.5781L50.3497 58.9896H50.4932Z" fill="white"/>
<path d="M101.148 59.9752L100.692 60.4056C100.366 60.0841 100.007 59.8389 99.6185 59.6723C99.2298 59.5078 98.8504 59.4247 98.4804 59.4247C98.0199 59.4247 97.5826 59.5382 97.1684 59.7624C96.7521 59.9893 96.4303 60.2946 96.2014 60.6808C95.9724 61.0674 95.8592 61.4767 95.8592 61.9072C95.8592 62.349 95.9771 62.7678 96.2131 63.1633C96.4489 63.5613 96.7753 63.8735 97.194 64.1004C97.6106 64.3294 98.0662 64.4429 98.5636 64.4429C99.1675 64.4429 99.6765 64.2715 100.095 63.9314C100.512 63.5914 100.759 63.152 100.836 62.6082H98.9661V62.0436H101.493C101.488 62.9483 101.22 63.6678 100.687 64.1998C100.153 64.7344 99.4406 65.0003 98.5498 65.0003C97.4648 65.0003 96.6064 64.6302 95.9749 63.8921C95.4889 63.3231 95.2461 62.666 95.2461 61.9186C95.2461 61.3634 95.3848 60.8475 95.6648 60.3687C95.9424 59.8896 96.3243 59.5172 96.8122 59.2464C97.2982 58.9759 97.8486 58.8418 98.4618 58.8418C98.9592 58.8418 99.4265 58.9319 99.8638 59.1101C100.301 59.2906 100.729 59.5796 101.148 59.9752Z" fill="white"/>
<path d="M104.527 59.5629V61.5549L105.536 61.5641C105.927 61.5641 106.216 61.527 106.403 61.4507C106.591 61.3768 106.736 61.2585 106.84 61.0944C106.945 60.9325 106.998 60.7499 106.998 60.5484C106.998 60.3517 106.945 60.1714 106.84 60.0117C106.734 59.8521 106.595 59.7365 106.422 59.6668C106.248 59.5976 105.961 59.5628 105.559 59.5628L104.527 59.5629ZM103.941 58.9893H105.11C105.76 58.9893 106.202 59.0169 106.433 59.0703C106.78 59.1489 107.062 59.32 107.282 59.5815C107.5 59.8429 107.608 60.1668 107.608 60.5485C107.608 60.8654 107.534 61.1455 107.384 61.3883C107.234 61.6312 107.019 61.814 106.739 61.9367C106.459 62.0592 106.075 62.124 105.584 62.1264L107.692 64.8518H106.968L104.862 62.1264H104.527V64.8518H103.941V58.9893Z" fill="white"/>
<path d="M112.991 59.4153C112.558 59.4153 112.146 59.5288 111.76 59.7531C111.371 59.98 111.068 60.2852 110.851 60.6669C110.633 61.0487 110.524 61.4767 110.524 61.9464C110.524 62.6428 110.765 63.2304 111.249 63.7092C111.73 64.1882 112.311 64.4286 112.991 64.4286C113.444 64.4286 113.865 64.3176 114.252 64.0978C114.638 63.8782 114.941 63.575 115.156 63.1933C115.372 62.8114 115.48 62.3858 115.48 61.9185C115.48 61.4536 115.372 61.0348 115.156 60.6575C114.941 60.2806 114.636 59.9799 114.242 59.753C113.849 59.5289 113.433 59.4153 112.991 59.4153ZM112.963 58.8418C113.849 58.8418 114.592 59.1377 115.191 59.73C115.788 60.3247 116.087 61.0534 116.087 61.9186C116.087 62.777 115.788 63.5058 115.193 64.1028C114.597 64.7018 113.87 65.0002 113.012 65.0002C112.142 65.0002 111.408 64.7018 110.812 64.1073C110.213 63.5127 109.914 62.7909 109.914 61.9466C109.914 61.3844 110.05 60.8615 110.323 60.3801C110.594 59.9014 110.967 59.5241 111.436 59.2513C111.906 58.9781 112.415 58.8418 112.963 58.8418Z" fill="white"/>
<path d="M118.578 58.9893H119.163V62.5289C119.163 62.9477 119.17 63.2091 119.187 63.3132C119.217 63.5447 119.284 63.7367 119.39 63.8916C119.497 64.0468 119.661 64.1784 119.881 64.2826C120.1 64.3889 120.323 64.4423 120.547 64.4423C120.741 64.4423 120.927 64.4006 121.104 64.3172C121.283 64.2363 121.431 64.1205 121.551 63.9749C121.669 63.8291 121.757 63.6508 121.815 63.445C121.854 63.2946 121.872 62.9893 121.872 62.5288V58.9893H122.46V62.5288C122.46 63.0517 122.409 63.4752 122.307 63.7967C122.204 64.1205 122 64.4029 121.692 64.6409C121.384 64.8794 121.014 64.9996 120.579 64.9996C120.105 64.9996 119.7 64.8864 119.365 64.6595C119.027 64.4352 118.8 64.1367 118.685 63.7641C118.613 63.5352 118.578 63.1233 118.578 62.5288V58.9893H118.578Z" fill="white"/>
<path d="M125.792 59.5583V61.5526L126.785 61.5642C127.185 61.5642 127.479 61.5271 127.666 61.4533C127.851 61.3815 127.997 61.2635 128.104 61.0993C128.21 60.9349 128.263 60.752 128.263 60.551C128.263 60.3541 128.21 60.176 128.104 60.0118C127.997 59.8477 127.856 59.7318 127.683 59.6624C127.509 59.5931 127.225 59.5583 126.829 59.5583H125.792ZM125.207 58.9893H126.373C127.042 58.9893 127.495 59.0193 127.729 59.0772C128.064 59.1579 128.337 59.3268 128.55 59.5838C128.763 59.8405 128.87 60.1644 128.87 60.551C128.87 60.9418 128.765 61.2659 128.56 61.518C128.351 61.7722 128.064 61.9436 127.701 62.0291C127.435 62.094 126.94 62.1264 126.211 62.1264H125.793V64.8518H125.207V58.9893H125.207Z" fill="white"/>
<path d="M111.266 17.7899L111.283 28.5259H114.875V17.7734L111.266 17.7899Z" fill="#278228"/>
</svg>
